PERFORMER "Christophe Coin & Il Giardino Armonico"
TITLE "Vivaldi: Concerti per Violoncello II"
REM GENRE "Classical"
REM DATE 2007
FILE "test.flac" WAVE
  TRACK 01 AUDIO
    TITLE "RV 411 Concerto F-dur : I. Allegro"
	PERFORMER "Christophe Coin & Il Giardino Armonico"
    INDEX 01 00:00:00
  TRACK 02 AUDIO
    TITLE "RV 411 Concerto F-dur : II. Largo"
	PERFORMER "Christophe Coin & Il Giardino Armonico"
    INDEX 01 03:01:71
  TRACK 03 AUDIO
    TITLE "RV 411 Concerto F-dur : III. Allegro Molto"
PERFORMER "Christophe Coin & Il Giardino Armonico"
    INDEX 01 04:13:70
  TRACK 04 AUDIO
    TITLE "RV 401 Concerto c-moll : I. Allegro Non Molto (Andante Poco Mosso)"
PERFORMER "Christophe Coin & Il Giardino Armonico"
    INDEX 01 06:13:33
  TRACK 05 AUDIO
    TITLE "RV 401 Concerto c-moll : II. Adagio"
PERFORMER "Christophe Coin & Il Giardino Armonico"
    INDEX 01 11:02:72
  TRACK 06 AUDIO
    TITLE "RV 401 Concerto c-moll : III. Allegro Ma Non Molto"
PERFORMER "Christophe Coin & Il Giardino Armonico"
    INDEX 01 14:09:13
  TRACK 07 AUDIO
    TITLE "RV 408 Concerto Es-dur : I. Allegro Non Molto"
PERFORMER "Christophe Coin & Il Giardino Armonico"
    INDEX 01 17:06:19
  TRACK 08 AUDIO
    TITLE "RV 408 Concerto Es-dur : II. Largo"
PERFORMER "Christophe Coin & Il Giardino Armonico"
    INDEX 01 20:38:68
  TRACK 09 AUDIO
    TITLE "RV 408 Concerto Es-dur : III. Allegro"
PERFORMER "Christophe Coin & Il Giardino Armonico"
    INDEX 01 24:58:70
  TRACK 10 AUDIO
    TITLE "RV 417 Concerto g-moll : I. Allegro"
PERFORMER "Christophe Coin & Il Giardino Armonico"
    INDEX 01 27:02:23
  TRACK 11 AUDIO
    TITLE "RV 417 Concerto g-moll : II. Andante"
PERFORMER "Christophe Coin & Il Giardino Armonico"
    INDEX 01 29:58:29
  TRACK 12 AUDIO
    TITLE "RV 417 Concerto g-moll : III. Allegro"
PERFORMER "Christophe Coin & Il Giardino Armonico"
    INDEX 01 33:06:56
  TRACK 13 AUDIO
    TITLE "RV 399 Concerto C-dur : I. Allegro"
PERFORMER "Christophe Coin & Il Giardino Armonico"
    INDEX 01 36:09:28
  TRACK 14 AUDIO
    TITLE "RV 399 Concerto C-dur : II. Largo"
PERFORMER "Christophe Coin & Il Giardino Armonico"
    INDEX 01 38:27:60
  TRACK 15 AUDIO
    TITLE "RV 399 Concerto C-dur : III. Allegro"
PERFORMER "Christophe Coin & Il Giardino Armonico"
    INDEX 01 40:50:36
  TRACK 16 AUDIO
    TITLE "RV 403 Concerto D-dur : I. Allegro"
PERFORMER "Christophe Coin & Il Giardino Armonico"
    INDEX 01 43:07:29
  TRACK 17 AUDIO
    TITLE "RV 403 Concerto D-dur : II. Andante E Spiritoso"
PERFORMER "Christophe Coin & Il Giardino Armonico"
    INDEX 01 46:22:32
  TRACK 18 AUDIO
    TITLE "RV 403 Concerto D-dur : III. Allegro"
PERFORMER "Christophe Coin & Il Giardino Armonico"
    INDEX 01 48:18:65
  TRACK 19 AUDIO
    TITLE "RV 422 Concerto a-moll : I. Allegro"
PERFORMER "Christophe Coin & Il Giardino Armonico"
    INDEX 01 50:55:44
  TRACK 20 AUDIO
    TITLE "RV 422 Concerto a-moll : II. Largo Cantabile"
PERFORMER "Christophe Coin & Il Giardino Armonico"
    INDEX 01 54:36:25
  TRACK 21 AUDIO
    TITLE "RV 422 Concerto a-moll : III. Allegro"
    INDEX 01 57:35:36
